<?xml version="1.0" encoding="utf-8"?>
<!-- Generator: Adobe Illustrator 25.4.1, SVG Export Plug-In . SVG Version: 6.00 Build 0)  -->
<svg version="1.1" id="Слой_1" xmlns="http://www.w3.org/2000/svg" xmlns:xlink="http://www.w3.org/1999/xlink" x="0px" y="0px"
	 viewBox="0 0 512 512" style="enable-background:new 0 0 512 512;" xml:space="preserve">
<style type="text/css">
	.st0{fill:none;}
	.st1{stroke:#000000;}
	.st2{opacity:0.5;fill:none;stroke:#000000;stroke-width:18;enable-background:new    ;}
	.st3{fill:none;stroke:#000000;stroke-width:8;}
</style>
<g>
	<rect id="canvas_background" x="-1" y="-1" class="st0" width="582" height="402"/>
</g>
<g>
	<g id="svg_16">
		<path id="svg_12" d="M168.2,234.5c-1.2-0.3-2.5,0.4-2.8,1.7c0,0.1-2,7.6-7,7.6s-7-7.5-7-7.6c-0.3-1.3-1.6-2-2.8-1.7
			c-1.2,0.3-2,1.6-1.7,2.8c0.1,0.5,2.9,11.1,11.6,11.1s11.4-10.7,11.6-11.1C170.2,236.1,169.4,234.8,168.2,234.5z"/>
		<path id="svg_13" d="M200.2,248.4c8.7,0,11.4-10.7,11.6-11.1c0.3-1.3-0.4-2.5-1.7-2.8c-1.2-0.3-2.5,0.4-2.8,1.7c0,0.1-2,7.6-7,7.6
			s-7-7.5-7-7.6c-0.3-1.3-1.6-2-2.8-1.7c-1.2,0.3-2,1.6-1.7,2.8C188.7,237.8,191.5,248.4,200.2,248.4z"/>
		<path id="svg_15" d="M228.1,224.1v-14.3c0-6.5-14.7-9.4-27.9-10.7v-36c0-3.9-3.1-7-7-7h-27.9c-3.9,0-7,3.1-7,7v36
			c-13.2,1.3-27.9,4.2-27.9,10.7v14.3c-5.3,1.3-9.3,7-9.3,13.7c0,6.9,4.1,12.6,9.5,13.8c2.3,25.3,23.4,44.6,48.6,44.6
			c25.3,0,46.4-19.3,48.6-44.6c5.4-1.2,9.5-6.9,9.5-13.8C237.4,231.1,233.4,225.4,228.1,224.1L228.1,224.1z M130.4,246.6
			c-3.1-1.8-4.9-5.2-4.7-8.8c-0.2-3.6,1.6-6.9,4.7-8.8V246.6z M162.9,163.1c0-1.3,1-2.3,2.3-2.3h27.9c1.3,0,2.3,1,2.3,2.3V206
			l-15.2-7.7c-0.7-0.3-1.4-0.3-2.1,0l-15.2,7.7L162.9,163.1L162.9,163.1z M223.4,247.2c0,24.5-19.8,44.4-44.2,44.4
			c-24.4,0-44.2-19.9-44.2-44.4v-31.8c11.9,6.1,42.6,6.2,44.2,6.2c1.6,0,32.3-0.1,44.2-6.2L223.4,247.2L223.4,247.2z M179.2,216.8
			c-27.4,0-43.1-4.5-44.2-6.9v0c0.6-1.3,7-4.4,23.3-6.1v6c0,0.8,0.4,1.6,1.1,2c0.7,0.4,1.5,0.5,2.3,0.1l17.6-8.8l17.6,8.8
			c0.7,0.4,1.6,0.3,2.3-0.1c0.7-0.4,1.1-1.2,1.1-2v-6c16.3,1.7,22.8,4.8,23.3,5.9C222.4,212.2,206.8,216.8,179.2,216.8L179.2,216.8z
			 M228.1,246.6v-17.5c3.1,1.8,4.9,5.2,4.7,8.8C232.9,241.4,231.1,244.8,228.1,246.6z"/>
		<path id="svg_18" class="st1" d="M167.4,174.4h9l2.8-8.6l2.8,8.6h9l-7.3,5.3l2.8,8.6l-7.3-5.3l-7.3,5.3l2.8-8.6L167.4,174.4
			L167.4,174.4z"/>
		<path d="M228.7,314.7"/>
	</g>
	<g id="svg_41" transform="rotate(-0.779315710067749 350.7365722656266,243.28071594238264) ">
		<g id="svg_23" transform="matrix(0.8788409283674266,0,0,0.8788409283674266,-941.8869169315585,-970.4585564642257) ">
			<g id="svg_24">
				<path id="svg_25" d="M1602.5,1226.5h-32v-40c0-4.4-3.6-8-8-8c-0.2,0-0.5,0-0.7,0l-20.9,1.8c-50.6,4.2-100.3,16.3-147.1,35.9
					l-23.3,9.7l-23.3-9.7c-46.9-19.6-96.5-31.7-147.1-35.9l-20.9-1.8c-4.4-0.4-8.3,2.9-8.6,7.3c0,0.2,0,0.5,0,0.7v40l-32,0
					c-4.4,0-8,3.6-8,8v336c0,4.4,3.6,8,8,8l464,0c4.4,0,8-3.6,8-8l0-336C1610.5,1230.1,1606.9,1226.5,1602.5,1226.5L1602.5,1226.5z
					 M1146.5,1562.5v-320h24v280c0,4.2,3.2,7.6,7.3,8l21.5,1.8c5.9,0.5,11.7,1.1,17.6,1.8c2,0.2,3.9,0.5,5.9,0.8
					c3.9,0.5,7.8,1,11.6,1.7c2.3,0.4,4.6,0.8,6.9,1.2c3.5,0.6,7,1.2,10.5,1.9c2.4,0.5,4.8,1,7.2,1.5c3.4,0.7,6.7,1.5,10.1,2.3
					c2.4,0.6,4.8,1.2,7.3,1.8c3.3,0.8,6.6,1.7,9.9,2.6c2.4,0.7,4.8,1.4,7.2,2.1c3.3,1,6.5,2,9.8,3c2.4,0.8,4.8,1.5,7.1,2.3
					c3.3,1.1,6.5,2.2,9.8,3.4c2.3,0.8,4.6,1.7,6.9,2.5c1,0.4,2,0.8,3,1.2L1146.5,1562.5L1146.5,1562.5z M1362.5,1558.5l-14.8-6.2
					c-46.8-19.6-96.4-31.8-147-36l-14.2-1.2v-320l12.2,1c49,4,97,15.8,142.3,34.7l21.5,8.9V1558.5L1362.5,1558.5z M1378.5,1558.5
					l0-318.7l21.5-8.9c45.3-18.9,93.3-30.6,142.3-34.7l12.2-1l0,319.9l-13.1,1.1c-50.6,4.2-100.3,16.3-147.2,35.8L1378.5,1558.5
					L1378.5,1558.5z M1594.5,1562.5h-183.4c1.1-0.4,2.2-0.9,3.3-1.3c2.4-0.9,4.8-1.8,7.3-2.7c3.1-1.1,6.3-2.2,9.4-3.3
					c2.5-0.8,4.9-1.6,7.4-2.4c3.2-1,6.3-2,9.5-2.9c2.5-0.7,5-1.5,7.5-2.2c3.2-0.9,6.4-1.7,9.7-2.6c2.5-0.6,5-1.3,7.5-1.9
					c3.3-0.8,6.7-1.5,10-2.2c2.4-0.5,4.8-1.1,7.2-1.5c3.5-0.7,7.1-1.3,10.6-1.9c2.3-0.4,4.6-0.8,6.9-1.2c3.9-0.6,7.9-1.2,11.9-1.7
					c1.9-0.2,3.8-0.6,5.7-0.8c5.9-0.7,11.8-1.3,17.7-1.8l20.5-1.7c4.2-0.3,7.4-3.8,7.3-8l0-280h24V1562.5L1594.5,1562.5z"/>
			</g>
		</g>
		<g id="svg_26" transform="matrix(0.8788409283674266,0,0,0.8788409283674266,-941.8869169315585,-970.4585564642257) ">
		</g>
		<g id="svg_27" transform="matrix(0.8788409283674266,0,0,0.8788409283674266,-941.8869169315585,-970.4585564642257) ">
		</g>
		<g id="svg_28" transform="matrix(0.8788409283674266,0,0,0.8788409283674266,-941.8869169315585,-970.4585564642257) ">
		</g>
		<g id="svg_29" transform="matrix(0.8788409283674266,0,0,0.8788409283674266,-941.8869169315585,-970.4585564642257) ">
		</g>
		<g id="svg_30" transform="matrix(0.8788409283674266,0,0,0.8788409283674266,-941.8869169315585,-970.4585564642257) ">
		</g>
		<g id="svg_31" transform="matrix(0.8788409283674266,0,0,0.8788409283674266,-941.8869169315585,-970.4585564642257) ">
		</g>
		<g id="svg_32" transform="matrix(0.8788409283674266,0,0,0.8788409283674266,-941.8869169315585,-970.4585564642257) ">
		</g>
		<g id="svg_33" transform="matrix(0.8788409283674266,0,0,0.8788409283674266,-941.8869169315585,-970.4585564642257) ">
		</g>
		<g id="svg_34" transform="matrix(0.8788409283674266,0,0,0.8788409283674266,-941.8869169315585,-970.4585564642257) ">
		</g>
		<g id="svg_35" transform="matrix(0.8788409283674266,0,0,0.8788409283674266,-941.8869169315585,-970.4585564642257) ">
		</g>
		<g id="svg_36" transform="matrix(0.8788409283674266,0,0,0.8788409283674266,-941.8869169315585,-970.4585564642257) ">
		</g>
		<g id="svg_37" transform="matrix(0.8788409283674266,0,0,0.8788409283674266,-941.8869169315585,-970.4585564642257) ">
		</g>
		<g id="svg_38" transform="matrix(0.8788409283674266,0,0,0.8788409283674266,-941.8869169315585,-970.4585564642257) ">
		</g>
		<g id="svg_39" transform="matrix(0.8788409283674266,0,0,0.8788409283674266,-941.8869169315585,-970.4585564642257) ">
		</g>
		<g id="svg_40" transform="matrix(0.8788409283674266,0,0,0.8788409283674266,-941.8869169315585,-970.4585564642257) ">
		</g>
	</g>
	<g>
		<path id="svg_17" class="st2" d="M301.9,300.5"/>
		<line class="st3" x1="301.6" y1="271.2" x2="400.8" y2="244.7"/>
		<line class="st3" x1="301.4" y1="245.2" x2="400.6" y2="218.7"/>
		<line class="st3" x1="301.6" y1="219.2" x2="400.8" y2="192.7"/>
	</g>
</g>
</svg>
